<?xml version="1.0" encoding="utf-8"?>
<!-- Generator: Adobe Illustrator 24.0.2, SVG Export Plug-In . SVG Version: 6.00 Build 0)  -->
<!DOCTYPE svg PUBLIC "-//W3C//DTD SVG 1.1//EN" "http://www.w3.org/Graphics/SVG/1.1/DTD/svg11.dtd" [
	<!ENTITY ns_extend "http://ns.adobe.com/Extensibility/1.0/">
	<!ENTITY ns_ai "http://ns.adobe.com/AdobeIllustrator/10.0/">
	<!ENTITY ns_graphs "http://ns.adobe.com/Graphs/1.0/">
	<!ENTITY ns_vars "http://ns.adobe.com/Variables/1.0/">
	<!ENTITY ns_imrep "http://ns.adobe.com/ImageReplacement/1.0/">
	<!ENTITY ns_sfw "http://ns.adobe.com/SaveForWeb/1.0/">
	<!ENTITY ns_custom "http://ns.adobe.com/GenericCustomNamespace/1.0/">
	<!ENTITY ns_adobe_xpath "http://ns.adobe.com/XPath/1.0/">
]>
<svg version="1.1" id="Layer_1" xmlns:x="&ns_extend;" xmlns:i="&ns_ai;" xmlns:graph="&ns_graphs;"
	 xmlns="http://www.w3.org/2000/svg" xmlns:xlink="http://www.w3.org/1999/xlink" x="0px" y="0px" width="50px" height="50px"
	 viewBox="0 0 50 50" style="enable-background:new 0 0 50 50;" xml:space="preserve">
<style type="text/css">
	.st0{fill:#00BFFF;}
	.st1{fill:none;}
	.st2{fill:#FFFFFF;}
</style>
<metadata>
	<sfw  xmlns="&ns_sfw;">
		<slices></slices>
		<sliceSourceBounds  bottomLeftOrigin="true" height="50" width="50" x="0" y="0"></sliceSourceBounds>
		<optimizationSettings>
			<targetSettings  fileFormat="PNG8Format" targetSettingsID="0">
				
					<PNG8Format  autoReduce="false" ditherAlgorithm="diffusion" ditherPercent="100" interlaced="false" matteColor="#FFFFFF" noMatteColor="false" numColors="256" reductionAlgorithm="perceptual" rolloverMasterPalette="false" transparency="true" webShiftPercent="0">
					<colorTable  isExact="false"></colorTable>
					<lockedColors></lockedColors>
					<colorShiftEntries></colorShiftEntries>
				</PNG8Format>
			</targetSettings>
		</optimizationSettings>
	</sfw>
</metadata>
<circle class="st0" cx="25" cy="25" r="25"/>
<line class="st1" x1="29.4" y1="9.1" x2="7.1" y2="17.2"/>
<line class="st1" x1="45.7" y1="49.7" x2="18.7" y2="40"/>
<path class="st2" d="M22.5,10.9l-6.8,6.8H8c-1,0-1.8,0.8-1.8,1.8v10.9c0,1,0.8,1.8,1.8,1.8h7.8l6.8,6.8c1.2,1.1,3.1,0.3,3.1-1.3
	V12.2C25.7,10.6,23.7,9.8,22.5,10.9z M36.2,13.1c-0.8-0.5-2-0.3-2.5,0.6c-0.5,0.9-0.3,2,0.6,2.5c3,1.9,4.8,5.2,4.8,8.8
	c0,3.6-1.8,6.8-4.8,8.8c-0.8,0.5-1.1,1.7-0.6,2.5c0.5,0.8,1.6,1.2,2.5,0.6c4.1-2.6,6.5-7,6.5-11.9S40.2,15.7,36.2,13.1z"/>
<rect x="32.7" y="10.4" class="st0" width="11.3" height="29.2"/>
<g>
	
		<rect x="34.7" y="17.3" transform="matrix(0.7071 0.7071 -0.7071 0.7071 28.0947 -17.8267)" class="st2" width="1.7" height="15.3"/>
	
		<rect x="34.7" y="17.3" transform="matrix(0.7071 -0.7071 0.7071 0.7071 -7.2606 32.4714)" class="st2" width="1.7" height="15.3"/>
</g>
</svg>
