<svg id="Layer_1" data-name="Layer 1" xmlns="http://www.w3.org/2000/svg" xmlns:xlink="http://www.w3.org/1999/xlink" width="760" height="171.36006" viewBox="0 0 760 171.36006">
  <defs>
    <style>
      .cls-1 {
        fill: url(#linear-gradient);
      }

      .cls-2 {
        fill: url(#linear-gradient-2);
      }

      .cls-3 {
        fill: url(#linear-gradient-3);
      }

      .cls-4 {
        fill: url(#linear-gradient-4);
      }

      .cls-5 {
        fill: url(#linear-gradient-5);
      }

      .cls-6 {
        fill: url(#linear-gradient-6);
      }

      .cls-7 {
        fill: url(#linear-gradient-7);
      }

      .cls-8 {
        fill: url(#linear-gradient-8);
      }

      .cls-9 {
        fill: url(#linear-gradient-9);
      }

      .cls-10 {
        fill: url(#linear-gradient-10);
      }

      .cls-11 {
        fill: url(#linear-gradient-11);
      }

      .cls-12 {
        fill: url(#linear-gradient-12);
      }

      .cls-13 {
        fill: url(#linear-gradient-13);
      }

      .cls-14 {
        fill: url(#linear-gradient-14);
      }

      .cls-15 {
        fill: url(#linear-gradient-15);
      }

      .cls-16 {
        fill: url(#linear-gradient-16);
      }
    </style>
    <linearGradient id="linear-gradient" x1="162.68078" y1="215.25075" x2="47.96072" y2="215.25075" gradientUnits="userSpaceOnUse">
      <stop offset="0" stop-color="#00f2fe"/>
      <stop offset="1" stop-color="#4facfe"/>
    </linearGradient>
    <linearGradient id="linear-gradient-2" x1="162.68078" y1="306.00614" x2="47.96072" y2="306.00614" xlink:href="#linear-gradient"/>
    <linearGradient id="linear-gradient-3" x1="162.68078" y1="211.68143" x2="47.96072" y2="211.68143" xlink:href="#linear-gradient"/>
    <linearGradient id="linear-gradient-4" x1="162.68078" y1="288.8725" x2="47.96072" y2="288.8725" xlink:href="#linear-gradient"/>
    <linearGradient id="linear-gradient-5" x1="162.68078" y1="283.55069" x2="47.96072" y2="283.55069" xlink:href="#linear-gradient"/>
    <linearGradient id="linear-gradient-6" x1="162.68078" y1="209.44256" x2="47.96072" y2="209.44256" xlink:href="#linear-gradient"/>
    <linearGradient id="linear-gradient-7" x1="162.68078" y1="253.6255" x2="47.96072" y2="253.6255" xlink:href="#linear-gradient"/>
    <linearGradient id="linear-gradient-8" x1="100.68007" y1="166.5641" x2="100.68007" y2="295.63203" xlink:href="#linear-gradient"/>
    <linearGradient id="linear-gradient-9" x1="256.86207" y1="200.3343" x2="256.86207" y2="276.49399" xlink:href="#linear-gradient"/>
    <linearGradient id="linear-gradient-10" x1="338.12568" y1="200.3343" x2="338.12568" y2="276.49399" xlink:href="#linear-gradient"/>
    <linearGradient id="linear-gradient-11" x1="411.77093" y1="200.3343" x2="411.77093" y2="276.49399" xlink:href="#linear-gradient"/>
    <linearGradient id="linear-gradient-12" x1="522.61132" y1="213.7852" x2="522.61132" y2="279.53346" xlink:href="#linear-gradient"/>
    <linearGradient id="linear-gradient-13" x1="603.54649" y1="213.7852" x2="603.54649" y2="279.53346" xlink:href="#linear-gradient"/>
    <linearGradient id="linear-gradient-14" x1="666.30952" y1="213.7852" x2="666.30952" y2="279.53346" xlink:href="#linear-gradient"/>
    <linearGradient id="linear-gradient-15" x1="708.35578" y1="213.7852" x2="708.35578" y2="279.53346" xlink:href="#linear-gradient"/>
    <linearGradient id="linear-gradient-16" x1="751.23338" y1="213.7852" x2="751.23338" y2="279.53346" xlink:href="#linear-gradient"/>
  </defs>
  <title>horizontal-logo</title>
  <g>
    <g>
      <g>
        <path class="cls-1" d="M70.10087,213.72827v3.045a4.59964,4.59964,0,0,1-9.19927,0v-3.045a4.599,4.599,0,0,1,9.07967-1.03722A4.53916,4.53916,0,0,1,70.10087,213.72827Z" transform="translate(-15 -166.99217)"/>
        <path class="cls-2" d="M83.5502,300.0749a4.59983,4.59983,0,0,0-4.59964,4.59964v2.66321a4.59964,4.59964,0,0,0,9.19927,0v-2.66321A4.59835,4.59835,0,0,0,83.5502,300.0749Z" transform="translate(-15 -166.99217)"/>
        <path class="cls-3" d="M101.71875,219.80207a4.59836,4.59836,0,0,0,4.59964-4.59964v-7.042a4.59869,4.59869,0,0,0-9.19467-.15873c-.0046.053-.0046.10584-.0046.15873v7.042c0,.0529,0,.10579.0046.15868A4.59753,4.59753,0,0,0,101.71875,219.80207Z" transform="translate(-15 -166.99217)"/>
        <path class="cls-4" d="M119.88731,283.84513a4.59982,4.59982,0,0,0-4.59963,4.59964v.85547a4.59964,4.59964,0,0,0,9.19927,0v-.85547A4.59836,4.59836,0,0,0,119.88731,283.84513Z" transform="translate(-15 -166.99217)"/>
        <path class="cls-5" d="M46.56711,278.52332a4.59983,4.59983,0,0,0-4.59963,4.59964v.85547a4.59964,4.59964,0,0,0,9.19927,0V283.123A4.59836,4.59836,0,0,0,46.56711,278.52332Z" transform="translate(-15 -166.99217)"/>
        <path class="cls-6" d="M138.05817,202.60633a4.59982,4.59982,0,0,0-4.59963,4.59963v4.47319a4.59963,4.59963,0,1,0,9.19926,0V207.206A4.6013,4.6013,0,0,0,138.05817,202.60633Z" transform="translate(-15 -166.99217)"/>
        <path class="cls-7" d="M155.12643,240.92774a4.59986,4.59986,0,0,0-4.59964,4.59963v1.27826c0,2.539-1.76287,4.59964-3.935,4.59964-2.16748,0-3.92339-2.04846-3.934-4.5769V225.71475a4.67175,4.67175,0,0,0-4.43467-4.707,4.59987,4.59987,0,0,0-4.7646,4.59674v12.649a4.55373,4.55373,0,0,1-4.38593,4.58935,4.4836,4.4836,0,0,1-4.55809-4.0052v-6.10328c0-.03262,0-.07-.00236-.10263-.00224-.12841-.0092-.25677-.0229-.38282a4.77378,4.77378,0,0,0-.08838-.54025,4.59211,4.59211,0,0,0-4.21008-3.72154h-.60707a4.56621,4.56621,0,0,0-.62965.08916,4.70458,4.70458,0,0,0-3.62962,3.41177,4.9339,4.9339,0,0,0-.161,1.14368c-.00225.03262-.00225.07-.00225.10263v14.247a4.48708,4.48708,0,0,1-4.42108,3.424,4.56483,4.56483,0,0,1-4.42176-4.60678v-15.576a4.59826,4.59826,0,0,0-8.61735-2.23541,4.51221,4.51221,0,0,0-.57732,2.07674c-.0046.05289-.0046.10578-.0046.15867v5.16769a4.48329,4.48329,0,0,1-4.70188,4.32521,4.55239,4.55239,0,0,1-4.2628-4.58285v-7.14546H88.1498V215.32893a4.59987,4.59987,0,0,0-4.7646-4.59674,4.67176,4.67176,0,0,0-4.43467,4.707v24.142a4.5549,4.5549,0,0,1-4.32136,4.58918,4.48469,4.48469,0,0,1-4.64793-4.48174v-7.0789a4.59884,4.59884,0,0,0-9.1877-.30354c-.00921.10118-.01156.20236-.01156.30354V244.9621a4.48367,4.48367,0,0,1-8.95773-.29438v-.09332c0-.05076-.00235-.10095-.00381-.15137l-.00539-.34408a2.291,2.291,0,0,0-.06918-.39056,5.09572,5.09572,0,0,0-4.99649-4.209,5.21071,5.21071,0,0,0-5.11529,5.21709v25.55032a5.16227,5.16227,0,0,0,4.85769,5.19278,5.097,5.097,0,0,0,5.09811-3.5591l-.00022.00326c.5197-1.99162,2.18707-4.13277,4.71923-4.07067a4.22934,4.22934,0,0,1,4.47308,3.88443v7.60775c0,.10124.00235.20242.01156.3036a4.59884,4.59884,0,0,0,9.1877-.3036V268.8565a4.55492,4.55492,0,0,1,4.32137-4.58914,4.48459,4.48459,0,0,1,4.64792,4.48172v23.06275a4.67178,4.67178,0,0,0,4.43467,4.707,4.59989,4.59989,0,0,0,4.7646-4.59677v-3.038h.00461V276.8583a4.55232,4.55232,0,0,1,4.2628-4.58279,4.48321,4.48321,0,0,1,4.70188,4.32518v4.917c0,.05289,0,.10578.0046.15867a4.59869,4.59869,0,0,0,9.19467-.15867v-7.56341a4.56481,4.56481,0,0,1,4.42176-4.60676,4.48723,4.48723,0,0,1,4.35427,3.17909,2.13128,2.13128,0,0,1,.08046.48574,8.30851,8.30851,0,0,0,.1128,1.035v.05339a4.67725,4.67725,0,0,0,9.20163-.58416v-.062c.01605-.16569.02526-.33374.02526-.50415v-5.13967a4.48358,4.48358,0,0,1,4.55809-4.00518,4.55372,4.55372,0,0,1,4.38593,4.58934v10.80454a4.5999,4.5999,0,0,0,4.7646,4.59677,4.67177,4.67177,0,0,0,4.43467-4.707V262.88163c.01056-2.52844,1.76844-4.57691,3.934-4.57691,2.1741,0,3.935,2.06063,3.935,4.59964l.08894-.05412a4.59935,4.59935,0,0,0,9.11033-.89753V245.52737A4.60133,4.60133,0,0,0,155.12643,240.92774Z" transform="translate(-15 -166.99217)"/>
      </g>
      <path class="cls-8" d="M183.24473,191.189a39.57828,39.57828,0,0,0-36.505-24.19682H54.62019A39.58313,39.58313,0,0,0,15,206.61248v92.11959a39.58313,39.58313,0,0,0,39.62019,39.62017h92.11959a39.58321,39.58321,0,0,0,39.62037-39.62017V206.61248A39.51514,39.51514,0,0,0,183.24473,191.189Zm-6.0838,107.54308A30.38421,30.38421,0,0,1,146.73978,329.153H54.62019a30.38395,30.38395,0,0,1-30.421-30.42093V206.61248a30.384,30.384,0,0,1,30.421-30.42105h92.11959a30.38422,30.38422,0,0,1,30.42115,30.42105Z" transform="translate(-15 -166.99217)"/>
    </g>
    <g>
      <g>
        <path class="cls-9" d="M256.862,216.93514,214.5869,293.71235h15.66161L256.862,244.37182l26.50729,49.34053h15.76794Z" transform="translate(-15 -166.99217)"/>
        <path class="cls-10" d="M325.63979,217.045v63.30452h39.42866v13.36181H311.18292V217.045Z" transform="translate(-15 -166.99217)"/>
        <path class="cls-11" d="M415.77523,271.1495H394.08949v22.56187H379.63262V217.045c12.04739,0,24.09522-.1099,36.14261-.1099C453.23227,216.93514,453.34216,271.1495,415.77523,271.1495Zm-21.68574-13.25235h21.68574c18.50959,0,18.40013-27.16191,0-27.16191H394.08949Z" transform="translate(-15 -166.99217)"/>
      </g>
      <g>
        <path class="cls-12" d="M553.11379,225.58789l-29.35246,44.9044h-1.9712l-29.57138-44.9044v68.12348H486.3043V217.045h7.00951l29.35246,44.68547L551.68991,217.045h7.22844v76.66633h-5.80456Z" transform="translate(-15 -166.99217)"/>
        <path class="cls-13" d="M622.768,293.71137v-9.74781c-4.16218,7.4478-11.719,10.51449-19.27627,10.624-14.4573,0-24.4236-8.87125-24.4236-23.8763V239.497h5.36627v31.10473c0,12.26675,7.55725,18.83841,19.27626,18.72852,11.17169-.10947,18.94787-8.54286,18.94787-19.71412V239.497h5.36628v54.21435Z" transform="translate(-15 -166.99217)"/>
        <path class="cls-14" d="M683.66046,249.46376c-5.47616-4.819-10.84287-5.6951-16.86635-5.6951-8.43339-.10946-16.538,3.06669-16.319,9.96674.21892,7.22844,9.63791,8.65232,16.4285,9.85684,9.63791,1.64281,22.89026,3.286,22.34295,15.88119-.32882,11.93793-12.705,15.11408-22.23349,15.11408s-18.94744-3.61444-23.65694-10.84287l3.94283-3.50454c4.49013,6.46176,12.59514,9.20006,19.82357,9.20006,6.57166,0,16.538-1.7527,16.86679-10.29555.21892-7.77619-8.76179-9.30953-17.63346-10.733-10.514-1.7527-20.91907-3.7239-21.02853-14.56677-.10947-10.62394,10.51448-15.224,21.46681-15.11451,7.88565,0,14.7857,2.19055,20.1524,7.22887Z" transform="translate(-15 -166.99217)"/>
        <path class="cls-15" d="M712.68194,221.97346c0,5.69509-8.65232,5.69509-8.65232,0S712.68194,216.27837,712.68194,221.97346Zm-7.119,17.4141v54.32381h5.3667V239.38756Z" transform="translate(-15 -166.99217)"/>
        <path class="cls-16" d="M775,286.15412a27.67591,27.67591,0,0,1-19.71455,8.105c-15.22354,0-27.81868-10.51448-27.81868-27.60019s12.15686-27.59976,27.81868-27.59976A28.13989,28.13989,0,0,1,775,247.16374l-3.505,3.39551a22.93856,22.93856,0,0,0-16.20958-6.4622c-12.26632,0-22.56187,7.99554-22.56187,22.56188,0,14.56677,10.29555,22.56187,22.56187,22.56187a22.91266,22.91266,0,0,0,16.10012-6.68069Z" transform="translate(-15 -166.99217)"/>
      </g>
    </g>
  </g>
</svg>
