<?xml version="1.0" encoding="utf-8"?>
<!-- Generator: Adobe Illustrator 24.0.2, SVG Export Plug-In . SVG Version: 6.00 Build 0)  -->
<!DOCTYPE svg PUBLIC "-//W3C//DTD SVG 1.1//EN" "http://www.w3.org/Graphics/SVG/1.1/DTD/svg11.dtd" [
	<!ENTITY ns_extend "http://ns.adobe.com/Extensibility/1.0/">
	<!ENTITY ns_ai "http://ns.adobe.com/AdobeIllustrator/10.0/">
	<!ENTITY ns_graphs "http://ns.adobe.com/Graphs/1.0/">
	<!ENTITY ns_vars "http://ns.adobe.com/Variables/1.0/">
	<!ENTITY ns_imrep "http://ns.adobe.com/ImageReplacement/1.0/">
	<!ENTITY ns_sfw "http://ns.adobe.com/SaveForWeb/1.0/">
	<!ENTITY ns_custom "http://ns.adobe.com/GenericCustomNamespace/1.0/">
	<!ENTITY ns_adobe_xpath "http://ns.adobe.com/XPath/1.0/">
]>
<svg version="1.1" id="Layer_1" xmlns:x="&ns_extend;" xmlns:i="&ns_ai;" xmlns:graph="&ns_graphs;"
	 xmlns="http://www.w3.org/2000/svg" xmlns:xlink="http://www.w3.org/1999/xlink" x="0px" y="0px" width="50px" height="50px"
	 viewBox="0 0 50 50" style="enable-background:new 0 0 50 50;" xml:space="preserve">
<style type="text/css">
	.st0{fill:#00BFFF;}
	.st1{fill:#FFFFFF;}
</style>
<metadata>
	<sfw  xmlns="&ns_sfw;">
		<slices></slices>
		<sliceSourceBounds  bottomLeftOrigin="true" height="46.9" width="46.9" x="2.1" y="-49.4"></sliceSourceBounds>
	</sfw>
</metadata>
<circle class="st0" cx="25.5" cy="26" r="23.4"/>
<rect x="22" y="13" class="st1" width="7" height="26"/>
<polygon class="st1" points="29.9,14.1 28.8,15.4 25.5,19 22.2,22.6 16.3,29 11.4,24.6 21,14.1 22.2,12.8 25.4,9.3 25.5,9.3 
	28.8,12.8 28.8,12.8 28.8,12.9 "/>
<polygon class="st1" points="21,14.1 22.1,15.4 25.4,19 28.7,22.6 34.6,29 39.5,24.6 29.9,14.1 28.7,12.8 25.5,9.3 25.4,9.3 
	22.2,12.8 22.1,12.8 22.1,12.9 "/>
</svg>
