<?xml version="1.0" encoding="utf-8"?>
<!-- Generator: Adobe Illustrator 24.0.2, SVG Export Plug-In . SVG Version: 6.00 Build 0)  -->
<!DOCTYPE svg PUBLIC "-//W3C//DTD SVG 1.1//EN" "http://www.w3.org/Graphics/SVG/1.1/DTD/svg11.dtd" [
	<!ENTITY ns_extend "http://ns.adobe.com/Extensibility/1.0/">
	<!ENTITY ns_ai "http://ns.adobe.com/AdobeIllustrator/10.0/">
	<!ENTITY ns_graphs "http://ns.adobe.com/Graphs/1.0/">
	<!ENTITY ns_vars "http://ns.adobe.com/Variables/1.0/">
	<!ENTITY ns_imrep "http://ns.adobe.com/ImageReplacement/1.0/">
	<!ENTITY ns_sfw "http://ns.adobe.com/SaveForWeb/1.0/">
	<!ENTITY ns_custom "http://ns.adobe.com/GenericCustomNamespace/1.0/">
	<!ENTITY ns_adobe_xpath "http://ns.adobe.com/XPath/1.0/">
]>
<svg version="1.1" id="Layer_1" xmlns:x="&ns_extend;" xmlns:i="&ns_ai;" xmlns:graph="&ns_graphs;"
	 xmlns="http://www.w3.org/2000/svg" xmlns:xlink="http://www.w3.org/1999/xlink" x="0px" y="0px" width="800px" height="800px"
	 viewBox="0 0 800 800" style="enable-background:new 0 0 800 800;" xml:space="preserve">
<style type="text/css">
	.st0{fill:url(#SVGID_1_);}
	.st1{fill:url(#SVGID_2_);}
	.st2{fill:url(#SVGID_3_);}
	.st3{fill:url(#SVGID_4_);}
	.st4{fill:url(#SVGID_5_);}
	.st5{fill:url(#SVGID_6_);}
	.st6{fill:url(#SVGID_7_);}
	.st7{fill:url(#SVGID_8_);}
	.st8{fill:url(#SVGID_9_);}
	.st9{fill:url(#SVGID_10_);}
	.st10{fill:url(#SVGID_11_);}
	.st11{fill:url(#SVGID_12_);}
	.st12{fill:url(#SVGID_13_);}
	.st13{fill:url(#SVGID_14_);}
	.st14{fill:url(#SVGID_15_);}
	.st15{fill:url(#SVGID_16_);}
</style>
<metadata>
	<sfw  xmlns="&ns_sfw;">
		<slices></slices>
		<sliceSourceBounds  bottomLeftOrigin="true" height="548.3" width="791.3" x="3.7" y="-673.7"></sliceSourceBounds>
	</sfw>
</metadata>
<g>
	<g>
		<g>
			<linearGradient id="SVGID_1_" gradientUnits="userSpaceOnUse" x1="534.601" y1="230.6654" x2="284.3418" y2="230.6654">
				<stop  offset="0" style="stop-color:#00F2FE"/>
				<stop  offset="1" style="stop-color:#4FACFE"/>
			</linearGradient>
			<path class="st0" d="M332.6,227.3v6.6c0,0.8-0.1,1.5-0.3,2.3c-1,4.5-5,7.8-9.8,7.8c-5.5,0-10-4.5-10-10v-6.6c0-5.5,4.5-10,10-10
				c4.8,0,8.8,3.3,9.8,7.8C332.5,225.8,332.6,226.6,332.6,227.3z"/>
			<linearGradient id="SVGID_2_" gradientUnits="userSpaceOnUse" x1="534.601" y1="428.6462" x2="284.3418" y2="428.6462">
				<stop  offset="0" style="stop-color:#00F2FE"/>
				<stop  offset="1" style="stop-color:#4FACFE"/>
			</linearGradient>
			<path class="st1" d="M362,415.7c-5.5,0-10,4.5-10,10v5.8c0,5.5,4.5,10,10,10c5.5,0,10-4.5,10-10v-5.8
				C372,420.2,367.5,415.7,362,415.7z"/>
			<linearGradient id="SVGID_3_" gradientUnits="userSpaceOnUse" x1="534.601" y1="222.879" x2="284.3418" y2="222.879">
				<stop  offset="0" style="stop-color:#00F2FE"/>
				<stop  offset="1" style="stop-color:#4FACFE"/>
			</linearGradient>
			<path class="st2" d="M401.6,240.6c5.5,0,10-4.5,10-10v-15.4c0-5.5-4.5-10-10-10c-5.4,0-9.8,4.3-10,9.7c0,0.1,0,0.2,0,0.3v15.4
				c0,0.1,0,0.2,0,0.3C391.8,236.3,396.2,240.6,401.6,240.6z"/>
			<linearGradient id="SVGID_4_" gradientUnits="userSpaceOnUse" x1="534.601" y1="391.2696" x2="284.3418" y2="391.2696">
				<stop  offset="0" style="stop-color:#00F2FE"/>
				<stop  offset="1" style="stop-color:#4FACFE"/>
			</linearGradient>
			<path class="st3" d="M441.2,380.3c-5.5,0-10,4.5-10,10v1.9c0,5.5,4.5,10,10,10c5.5,0,10-4.5,10-10v-1.9
				C451.3,384.8,446.8,380.3,441.2,380.3z"/>
			<linearGradient id="SVGID_5_" gradientUnits="userSpaceOnUse" x1="534.601" y1="379.6602" x2="284.3418" y2="379.6602">
				<stop  offset="0" style="stop-color:#00F2FE"/>
				<stop  offset="1" style="stop-color:#4FACFE"/>
			</linearGradient>
			<path class="st4" d="M281.3,368.7c-5.5,0-10,4.5-10,10v1.9c0,5.5,4.5,10,10,10c5.5,0,10-4.5,10-10v-1.9
				C291.3,373.2,286.8,368.7,281.3,368.7z"/>
			<linearGradient id="SVGID_6_" gradientUnits="userSpaceOnUse" x1="534.601" y1="217.995" x2="284.3418" y2="217.995">
				<stop  offset="0" style="stop-color:#00F2FE"/>
				<stop  offset="1" style="stop-color:#4FACFE"/>
			</linearGradient>
			<path class="st5" d="M480.9,203.1c-5.5,0-10,4.5-10,10v9.8c0,5.5,4.5,10,10,10c5.5,0,10-4.5,10-10v-9.8
				C490.9,207.6,486.4,203.1,480.9,203.1z"/>
			<linearGradient id="SVGID_7_" gradientUnits="userSpaceOnUse" x1="534.601" y1="314.3791" x2="284.3418" y2="314.3791">
				<stop  offset="0" style="stop-color:#00F2FE"/>
				<stop  offset="1" style="stop-color:#4FACFE"/>
			</linearGradient>
			<path class="st6" d="M518.1,286.7c-5.5,0-10,4.5-10,10v2.8c0,5.5-3.8,10-8.6,10c-4.7,0-8.6-4.5-8.6-10v-41.1v-5
				c0-5.4-4.2-10.1-9.7-10.3c-5.7-0.2-10.4,4.4-10.4,10v5.2v22.4c0,5.4-4.2,9.9-9.6,10c-5.1,0.1-9.4-3.8-9.9-8.7v-13.3
				c0-0.1,0-0.2,0-0.2c0-0.3,0-0.6,0-0.8c0-0.4-0.1-0.8-0.2-1.2c-0.8-4.4-4.6-7.8-9.2-8.1h-1.3c-0.5,0-0.9,0.1-1.4,0.2
				c-3.8,0.7-6.9,3.7-7.9,7.4c-0.2,0.8-0.3,1.6-0.4,2.5c0,0.1,0,0.2,0,0.2v31.1c-1,4.3-5,7.5-9.6,7.5c-5.4-0.1-9.6-4.7-9.6-10v-34
				c0-1.8-0.5-3.4-1.3-4.9c-1.7-3.1-5-5.2-8.8-5.2c-3.8,0-7.1,2.1-8.8,5.2c-0.8,1.3-1.2,2.9-1.3,4.5c0,0.1,0,0.2,0,0.3v11.3
				c-0.2,5.4-4.8,9.7-10.3,9.4c-5.2-0.3-9.3-4.7-9.3-10v-15.6h0v-27.6c0-5.7-4.7-10.2-10.4-10c-5.4,0.2-9.7,4.8-9.7,10.3v27.4v25.3
				c0,5.3-4.1,9.8-9.4,10c-5.6,0.2-10.1-4.3-10.1-9.8v-15.4c0-5.5-4.5-10-10-10c-5.3,0-9.7,4.1-10,9.4c0,0.2,0,0.4,0,0.7v26.9
				c-0.3,5.1-4.6,9.1-9.8,9.1c-5.4,0-9.8-4.4-9.8-9.8v-0.2c0-0.1,0-0.2,0-0.3l0-0.8c0-0.3-0.1-0.6-0.2-0.9
				c-0.9-5.2-5.4-9.2-10.9-9.2c-6.1,0-11.2,5.2-11.2,11.4v55.7c0,6,4.6,11.1,10.6,11.3c5.2,0.2,9.7-3.1,11.1-7.8l0,0
				c1.1-4.3,4.8-9,10.3-8.9c5.2,0,9.4,3.4,9.8,8.5v0.7v15.9c0,0.2,0,0.4,0,0.7c0.3,5.2,4.7,9.4,10,9.4c5.5,0,10-4.5,10-10v-22.8
				c0-5.3,4.1-9.8,9.4-10c5.6-0.2,10.1,4.3,10.1,9.8v43.9v6.4c0,5.4,4.2,10.1,9.7,10.3c5.7,0.2,10.4-4.4,10.4-10v-6.6h0v-26.2
				c0-5.3,4.1-9.7,9.3-10c5.5-0.3,10.1,4,10.3,9.4v10.7c0,0.1,0,0.2,0,0.3c0.2,5.4,4.6,9.7,10,9.7c5.5,0,10-4.5,10-10v-16.5
				c0-5.4,4.3-10,9.6-10c4.5-0.1,8.3,2.9,9.5,6.9c0.1,0.3,0.2,0.7,0.2,1.1c0,0.7,0.1,1.7,0.2,2.3v0.1c1.1,4.5,5.1,7.8,9.9,7.8
				c5.3,0,9.6-4,10.1-9.1v-0.1c0-0.4,0.1-0.7,0.1-1.1v-11.2c0.5-5,4.8-8.8,9.9-8.7c5.4,0.1,9.6,4.7,9.6,10v23.6
				c0,5.7,4.7,10.2,10.4,10c5.4-0.2,9.7-4.8,9.7-10.3v-35.4c0-5.5,3.9-10,8.6-10c4.7,0,8.6,4.5,8.6,10c0,0,0.1,0,0.2-0.1
				c0.9,4.6,5,8.1,9.8,8.1c5.5,0,10-4.5,10-10v-35.8C528.2,291.2,523.7,286.7,518.1,286.7z"/>
		</g>
		<linearGradient id="SVGID_8_" gradientUnits="userSpaceOnUse" x1="399.3478" y1="124.4566" x2="399.3478" y2="406.0153">
			<stop  offset="0" style="stop-color:#00F2FE"/>
			<stop  offset="1" style="stop-color:#4FACFE"/>
		</linearGradient>
		<path class="st7" d="M579.5,178.2c-6.6-15.5-17.5-28.7-31.3-38c-6.9-4.7-14.5-8.4-22.6-10.9c-8.1-2.5-16.8-3.9-25.7-3.9h-201
			c-11.9,0-23.3,2.4-33.6,6.8c-15.5,6.6-28.7,17.5-38,31.3c-4.7,6.9-8.4,14.5-10.9,22.6c-2.5,8.1-3.9,16.8-3.9,25.7v201
			c0,11.9,2.4,23.3,6.8,33.6c6.6,15.5,17.5,28.7,31.3,38c6.9,4.7,14.5,8.4,22.6,10.9c8.1,2.5,16.8,3.9,25.7,3.9h201
			c11.9,0,23.3-2.4,33.6-6.8c15.5-6.6,28.7-17.5,38-31.3c4.7-6.9,8.4-14.5,10.9-22.6c2.5-8.1,3.9-16.8,3.9-25.7v-201
			C586.3,199.9,583.8,188.5,579.5,178.2z M566.2,412.8c0,9.2-1.9,17.9-5.2,25.8c-5,11.9-13.5,22-24.1,29.2
			c-5.3,3.6-11.1,6.4-17.4,8.3c-6.2,1.9-12.8,3-19.7,3h-201c-9.2,0-17.9-1.9-25.8-5.2c-11.9-5-22-13.5-29.2-24.1
			c-3.6-5.3-6.4-11.1-8.3-17.4c-1.9-6.2-3-12.8-3-19.7v-201c0-9.2,1.9-17.9,5.2-25.8c5-11.9,13.5-22,24.1-29.2
			c5.3-3.6,11.1-6.4,17.4-8.3c6.2-1.9,12.8-3,19.7-3h201c9.2,0,17.9,1.9,25.8,5.2c11.9,5,22,13.5,29.2,24.1
			c3.6,5.3,6.4,11.1,8.3,17.4c1.9,6.2,3,12.8,3,19.7V412.8z"/>
	</g>
	<g>
		<g>
			<linearGradient id="SVGID_9_" gradientUnits="userSpaceOnUse" x1="63.3883" y1="540.6201" x2="63.3883" y2="648.1577">
				<stop  offset="0" style="stop-color:#00F2FE"/>
				<stop  offset="1" style="stop-color:#4FACFE"/>
			</linearGradient>
			<path class="st8" d="M63.4,564.1L3.7,672.5h22.1l37.6-69.7l37.4,69.7h22.3L63.4,564.1z"/>
			<linearGradient id="SVGID_10_" gradientUnits="userSpaceOnUse" x1="178.1326" y1="540.6201" x2="178.1326" y2="648.1577">
				<stop  offset="0" style="stop-color:#00F2FE"/>
				<stop  offset="1" style="stop-color:#4FACFE"/>
			</linearGradient>
			<path class="st9" d="M160.5,564.2v89.4h55.7v18.9h-76.1V564.2H160.5z"/>
			<linearGradient id="SVGID_11_" gradientUnits="userSpaceOnUse" x1="282.1199" y1="540.6201" x2="282.1199" y2="648.1577">
				<stop  offset="0" style="stop-color:#00F2FE"/>
				<stop  offset="1" style="stop-color:#4FACFE"/>
			</linearGradient>
			<path class="st10" d="M287.8,640.6h-30.6v31.9h-20.4V564.2c17,0,34-0.2,51-0.2C340.7,564.1,340.8,640.6,287.8,640.6z
				 M257.2,621.9h30.6c26.1,0,26-38.4,0-38.4h-30.6V621.9z"/>
		</g>
		<g>
			<linearGradient id="SVGID_12_" gradientUnits="userSpaceOnUse" x1="438.6267" y1="559.6127" x2="438.6267" y2="652.4494">
				<stop  offset="0" style="stop-color:#00F2FE"/>
				<stop  offset="1" style="stop-color:#4FACFE"/>
			</linearGradient>
			<path class="st11" d="M481.7,576.3l-41.4,63.4h-2.8l-41.8-63.4v96.2h-8.4V564.2c4,0,5.9,0,9.9,0l41.4,63.1l41-63.1h10.2v108.3
				h-8.2V576.3z"/>
			<linearGradient id="SVGID_13_" gradientUnits="userSpaceOnUse" x1="552.9073" y1="559.6127" x2="552.9073" y2="652.4494">
				<stop  offset="0" style="stop-color:#00F2FE"/>
				<stop  offset="1" style="stop-color:#4FACFE"/>
			</linearGradient>
			<path class="st12" d="M580,672.5v-13.8c-5.9,10.5-16.5,14.8-27.2,15c-20.4,0-34.5-12.5-34.5-33.7v-44.1h7.6v43.9
				c0,17.3,10.7,26.6,27.2,26.4c15.8-0.2,26.8-12.1,26.8-27.8v-42.5h7.6v76.6H580z"/>
			<linearGradient id="SVGID_14_" gradientUnits="userSpaceOnUse" x1="641.5289" y1="559.6127" x2="641.5289" y2="652.4494">
				<stop  offset="0" style="stop-color:#00F2FE"/>
				<stop  offset="1" style="stop-color:#4FACFE"/>
			</linearGradient>
			<path class="st13" d="M666,610c-7.7-6.8-15.3-8-23.8-8c-11.9-0.2-23.4,4.3-23,14.1c0.3,10.2,13.6,12.2,23.2,13.9
				c13.6,2.3,32.3,4.6,31.5,22.4c-0.5,16.9-17.9,21.3-31.4,21.3c-13.5,0-26.8-5.1-33.4-15.3l5.6-4.9c6.3,9.1,17.8,13,28,13
				c9.3,0,23.4-2.5,23.8-14.5c0.3-11-12.4-13.1-24.9-15.2c-14.8-2.5-29.5-5.3-29.7-20.6c-0.2-15,14.8-21.5,30.3-21.3
				c11.1,0,20.9,3.1,28.5,10.2L666,610z"/>
			<linearGradient id="SVGID_15_" gradientUnits="userSpaceOnUse" x1="700.8983" y1="559.6127" x2="700.8983" y2="652.4494">
				<stop  offset="0" style="stop-color:#00F2FE"/>
				<stop  offset="1" style="stop-color:#4FACFE"/>
			</linearGradient>
			<path class="st14" d="M707,571.2c0,8-12.2,8-12.2,0C694.8,563.1,707,563.1,707,571.2z M697,595.8v76.7h7.6v-76.7H697z"/>
			<linearGradient id="SVGID_16_" gradientUnits="userSpaceOnUse" x1="761.4415" y1="559.6127" x2="761.4415" y2="652.4494">
				<stop  offset="0" style="stop-color:#00F2FE"/>
				<stop  offset="1" style="stop-color:#4FACFE"/>
			</linearGradient>
			<path class="st15" d="M795,661.8c-7.7,7.7-17.8,11.4-27.8,11.4c-21.5,0-39.3-14.8-39.3-39s17.2-39,39.3-39
				c10.1,0,20.1,3.9,27.8,11.4l-4.9,4.8c-6.2-6.2-14.7-9.1-22.9-9.1c-17.3,0-31.9,11.3-31.9,31.9c0,20.6,14.5,31.9,31.9,31.9
				c8.2,0,16.5-3.2,22.7-9.4L795,661.8z"/>
		</g>
	</g>
</g>
</svg>
